<?xml version="1.0" encoding="UTF-8" standalone="no"?>
<svg width="133px" height="19px" viewBox="0 0 133 19" version="1.1" xmlns="http://www.w3.org/2000/svg" xmlns:xlink="http://www.w3.org/1999/xlink">
    <!-- Generator: Sketch 41.2 (35397) - http://www.bohemiancoding.com/sketch -->
    <title>menuLogo_FeedbackGenius</title>
    <desc>Created with Sketch.</desc>
    <defs></defs>
    <g id="Brand-Guides_Final-Document" stroke="none" stroke-width="1" fill="none" fill-rule="evenodd">
        <g id="Brand-Guide_4_Navigation-Menus" transform="translate(-1226.000000, -818.000000)">
            <g id="Group-10" transform="translate(1145.000000, 583.000000)">
                <g id="Group-9" transform="translate(23.000000, 0.000000)">
                    <g id="HeaderNav_promote">
                        <g id="Logos" transform="translate(44.000000, 169.000000)">
                            <g id="menuLogo_FeedbackGenius" transform="translate(14.000000, 66.000000)">
                                <path d="M11.2175,8.7056 C10.8645,8.9926 10.4035,9.3246 9.5325,9.2726 C8.5875,9.2176 8.0625,8.5936 7.9525,8.4536 C7.9125,8.5506 7.7225,8.9896 7.5235,9.3906 C6.5185,11.5476 5.8165,13.1416 5.3865,14.2476 C4.6345,16.1816 5.2635,16.8086 7.6785,16.8106 L14.8965,16.8186 C15.9175,16.8186 16.5565,15.6966 16.0465,14.8116 L15.7925,14.3716 C15.6845,14.8026 15.2975,15.1226 14.8315,15.1226 L12.2115,15.1226 C11.6625,15.1226 11.2175,14.6786 11.2175,14.1296 L11.2175,8.7056 Z" id="Fill-17" fill="#E97C3E"></path>
                                <path d="M6.8132,7.9127 C6.7472,7.9037 6.6802,7.8967 6.6182,7.8967 C6.1682,7.8967 5.7522,8.0347 5.5812,8.3297 C5.4332,8.5857 1.8372,14.8037 1.8372,14.8037 C1.3262,15.6867 1.9652,16.7997 2.9852,16.7997 L3.6052,16.7997 C2.2452,16.1887 2.9792,15.0197 2.9792,15.0197 L6.8132,7.9127 Z" id="Fill-19" fill="#E97C3E"></path>
                                <path d="M8.466,5.4825 C8.466,5.2225 8.256,5.0105 7.995,5.0105 C7.735,5.0105 7.524,5.2225 7.524,5.4825 C7.524,5.7425 7.735,5.9555 7.995,5.9555 C8.256,5.9555 8.466,5.7425 8.466,5.4825" id="Fill-21" fill="#E97C3E"></path>
                                <path d="M8.9885,7.2681 C9.0485,7.7061 9.4535,8.0131 9.8925,7.9521 C10.3305,7.8901 10.6355,7.4851 10.5755,7.0471 C10.5145,6.6091 10.1095,6.3041 9.6715,6.3651 C9.2325,6.4261 8.9275,6.8311 8.9885,7.2681" id="Fill-23" fill="#E97C3E"></path>
                                <path d="M9.6945,4.5235 C9.9915,4.4815 10.1995,4.2085 10.1585,3.9105 C10.1165,3.6135 9.8425,3.4065 9.5445,3.4475 C9.2485,3.4885 9.0405,3.7635 9.0825,4.0595 C9.1235,4.3575 9.3985,4.5645 9.6945,4.5235" id="Fill-25" fill="#E97C3E"></path>
                                <path d="M87.7414,8.7135 L89.3804,8.7135 L89.3804,12.0455 C89.3804,12.0455 88.8644,12.1745 88.3134,12.1745 C86.3964,12.1745 85.4584,10.5725 85.4584,7.1295 C85.4584,3.5755 86.4524,2.1955 88.8644,2.1955 C90.1354,2.1955 91.2954,2.5815 91.2954,2.5815 L91.4244,2.5815 L91.4244,0.4275 C91.4244,0.4275 90.2274,0.0965 88.7354,0.0965 C84.5004,0.0965 82.7884,2.7295 82.7884,7.2955 C82.7884,11.6775 84.3544,14.2195 88.3494,14.2195 C90.1904,14.2195 91.7554,13.6845 91.7554,13.6845 L91.7554,6.5765 L87.7414,6.5765 L87.7414,8.7135 Z" id="Fill-27" fill="#E97C3E"></path>
                                <path d="M95.9523,8.0313 C96.0083,6.2453 96.3213,5.4363 97.2783,5.4363 C98.2363,5.4363 98.5113,6.2273 98.5113,8.0313 L95.9523,8.0313 Z M100.3173,5.0673 C99.7273,4.1283 98.7333,3.6133 97.3333,3.6133 C94.3873,3.6133 93.4123,5.9153 93.4123,9.0073 C93.4123,10.6653 93.6873,12.0273 94.4433,12.9293 C95.1243,13.7403 96.1923,14.1823 97.7943,14.1823 C99.2673,14.1823 100.5183,13.8143 100.5183,13.8143 L100.5183,11.8633 L100.3903,11.8633 C100.3903,11.8633 99.1563,12.2853 98.1073,12.2853 C96.5973,12.2853 95.9523,11.4013 95.9523,9.7633 L101.0163,9.7633 C101.0163,7.6643 100.9983,6.1543 100.3173,5.0673 L100.3173,5.0673 Z" id="Fill-29" fill="#E97C3E"></path>
                                <path d="M107.7004,3.6495 C106.3564,3.6495 105.4714,4.2575 105.2144,5.3995 L104.7344,3.8345 L102.8204,3.8345 L102.8204,14.0715 L105.3794,14.0715 L105.3794,7.3505 C105.3794,6.7435 105.4914,5.7855 106.6874,5.7855 C107.2024,5.7855 107.5334,5.9705 107.7374,6.3015 C107.9384,6.6325 107.9214,7.0385 107.9214,7.5355 L107.9214,14.0715 L110.4804,14.0715 L110.4804,7.5535 C110.4804,6.3935 110.4804,5.5285 110.0754,4.8285 C109.6884,4.1655 108.9524,3.6495 107.7004,3.6495" id="Fill-31" fill="#E97C3E"></path>
                                <polygon id="Fill-33" fill="#E97C3E" points="112.579 14.072 115.102 14.072 115.102 3.834 112.579 3.834"></polygon>
                                <polygon id="Fill-35" fill="#E97C3E" points="112.56 2.563 115.12 2.563 115.12 0.206 112.56 0.206"></polygon>
                                <path d="M122.2268,10.5548 C122.2268,11.1808 122.1708,12.1378 121.0858,12.1378 C120.5878,12.1378 120.2198,11.9358 120.0168,11.6048 C119.8148,11.2728 119.8148,10.8678 119.8148,10.3888 L119.8148,3.8338 L117.2548,3.8338 L117.2548,10.3708 C117.2548,11.5128 117.2738,12.4138 117.6788,13.1148 C118.0838,13.7958 118.8568,14.2568 119.9618,14.2568 C121.3428,14.2568 122.1708,13.5558 122.4108,12.5248 L122.8718,14.0718 L124.7858,14.0718 L124.7858,3.8338 L122.2268,3.8338 L122.2268,10.5548 Z" id="Fill-36" fill="#E97C3E"></path>
                                <path d="M131.1565,8.3082 C130.1995,7.6262 129.1305,7.2772 129.1305,6.4662 C129.1305,5.9702 129.4985,5.6382 130.3095,5.6382 C131.1755,5.6382 132.1695,6.0252 132.1695,6.0252 L132.2975,6.0252 L132.2975,4.0362 C132.2975,4.0362 131.4505,3.7232 130.2355,3.7232 C127.9705,3.7232 126.6085,4.7912 126.6085,6.7062 C126.6085,7.9582 127.1975,8.7132 127.9895,9.3032 C129.0395,10.0952 130.1625,10.3712 130.1625,11.3102 C130.1625,11.8812 129.7755,12.2852 128.8555,12.2852 C127.8965,12.2852 126.8115,11.8432 126.8115,11.8432 L126.6825,11.8432 L126.6825,13.8322 C126.6825,13.8322 127.5295,14.1822 128.8915,14.1822 C131.4505,14.1822 132.6845,12.9662 132.6845,11.0892 C132.6845,9.6892 131.9845,8.8972 131.1565,8.3082" id="Fill-37" fill="#E97C3E"></path>
                                <path d="M5.4782,0.8995 L11.2172,0.8995 L11.2172,0.1545 L5.3052,0.1545 C5.0462,0.1545 4.9072,0.1885 4.9072,0.3645 L4.9072,0.4595 C4.9072,0.6615 5.2012,0.9025 5.4782,0.8995" id="Fill-38" fill="#838383"></path>
                                <path d="M17.802,15.0933 C17.749,14.8983 17.671,14.7103 17.57,14.5343 L15.825,11.5153 L15.825,12.9073 C16.439,13.9763 16.865,14.7193 16.865,14.7193 C17.198,15.2973 17.199,15.9873 16.866,16.5643 C16.557,17.0993 16.008,17.4453 15.398,17.4843 C15.37,17.4873 2.512,17.4863 2.484,17.4843 C1.872,17.4433 1.322,17.0983 1.012,16.5613 C0.677,15.9813 0.676,15.2893 1.008,14.7123 L6.57,5.0783 L6.57,1.6273 L5.917,1.6273 L5.917,4.8683 L0.322,14.5353 C0.205,14.7393 0.118,14.9553 0.067,15.1823 C-0.075,15.7603 0.01,16.3613 0.306,16.8723 C0.349,16.9473 0.398,17.0163 0.448,17.0853 C0.885,17.6903 1.559,18.0443 2.3,18.0443 L15.583,18.0443 C16.407,18.0443 17.151,17.6073 17.575,16.8723 C17.88,16.3453 17.965,15.7283 17.814,15.1363 L17.802,15.0933 Z" id="Fill-39" fill="#838383"></path>
                                <polygon id="Fill-40" fill="#838383" points="12.2111 14.1295 14.8321 14.1295 14.8321 8.7205 18.4211 8.7205 18.4211 6.4885 14.8321 6.4885 14.8321 2.3615 18.8111 2.3615 18.8111 0.1485 12.2111 0.1485"></polygon>
                                <path d="M23.9484,5.6851 C24.8854,5.6851 25.1544,6.4591 25.1544,8.2231 L22.6514,8.2231 C22.7054,6.4771 23.0114,5.6851 23.9484,5.6851 L23.9484,5.6851 Z M27.1174,11.9691 L26.9914,11.9691 C26.9914,11.9691 25.7854,12.3831 24.7584,12.3831 C23.2814,12.3831 22.6514,11.5201 22.6514,9.9171 L27.6034,9.9171 C27.6034,7.8651 27.5854,6.3871 26.9194,5.3251 C26.3434,4.4061 25.3704,3.9021 24.0024,3.9021 C21.1214,3.9021 20.1664,6.1531 20.1664,9.1781 C20.1664,10.7991 20.4364,12.1321 21.1754,13.0141 C21.8414,13.8051 22.8864,14.2391 24.4524,14.2391 C25.8924,14.2391 27.1174,13.8771 27.1174,13.8771 L27.1174,11.9691 Z" id="Fill-41" fill="#838383"></path>
                                <path d="M32.7893,5.6851 C33.7263,5.6851 33.9963,6.4591 33.9963,8.2231 L31.4933,8.2231 C31.5473,6.4771 31.8543,5.6851 32.7893,5.6851 M33.2943,14.2391 C34.7343,14.2391 35.9593,13.8771 35.9593,13.8771 L35.9593,11.9691 L35.8323,11.9691 C35.8323,11.9691 34.6263,12.3831 33.6003,12.3831 C32.1233,12.3831 31.4933,11.5201 31.4933,9.9171 L36.4453,9.9171 C36.4453,7.8651 36.4273,6.3871 35.7613,5.3251 C35.1843,4.4061 34.2123,3.9021 32.8443,3.9021 C29.9623,3.9021 29.0093,6.1531 29.0093,9.1781 C29.0093,10.8001 29.2783,12.1321 30.0173,13.0141 C30.6833,13.8051 31.7273,14.2391 33.2943,14.2391" id="Fill-42" fill="#838383"></path>
                                <path d="M42.9636,11.8072 C42.7486,12.1672 42.3876,12.3832 41.9016,12.3832 C41.4156,12.3832 41.0556,12.1672 40.8396,11.8072 C40.5506,11.3212 40.4426,10.5642 40.4426,9.1242 C40.4426,7.9532 40.5146,6.9992 40.8396,6.4762 C41.0376,6.1532 41.3786,5.9012 41.9016,5.9012 C42.4236,5.9012 42.7666,6.1532 42.9636,6.4762 C43.2886,6.9992 43.3596,7.9532 43.3596,9.1242 C43.3596,10.5642 43.2526,11.3212 42.9636,11.8072 L42.9636,11.8072 Z M43.3426,5.2532 C43.0356,4.3522 42.3346,3.9382 41.2896,3.9382 C40.2266,3.9382 39.3446,4.3712 38.7866,5.1092 C38.1016,6.0092 37.8506,7.4492 37.8506,9.2322 C37.8506,10.8162 38.0486,12.2932 38.7686,13.2292 C39.3266,13.9682 40.1906,14.3102 41.1276,14.3102 C42.3876,14.3102 43.2156,13.7162 43.4856,12.6712 L43.9546,14.1292 L45.8086,14.1292 L45.8086,0.2102 L43.3426,0.2102 L43.3426,5.2532 Z" id="Fill-43" fill="#838383"></path>
                                <path d="M52.8679,11.8614 C52.6699,12.1854 52.3279,12.4374 51.8059,12.4374 C51.2829,12.4374 50.9409,12.1854 50.7439,11.8614 C50.4549,11.3754 50.3469,10.6014 50.3469,9.1604 C50.3469,7.9904 50.4189,7.0354 50.7439,6.5134 C50.9409,6.1894 51.2829,5.9364 51.8239,5.9364 C52.2919,5.9364 52.6529,6.1354 52.8679,6.4954 C53.1559,6.9814 53.2639,7.7554 53.2639,9.1774 C53.2639,10.6014 53.1559,11.3754 52.8679,11.8614 M52.5619,3.9384 C51.3369,3.9384 50.6359,4.5144 50.3649,5.3794 L50.3649,0.2104 L47.8979,0.2104 L47.8979,14.1294 L49.3919,14.1294 L49.9519,12.7974 C50.3109,13.7884 51.1039,14.3104 52.3459,14.3104 C53.4439,14.3104 54.3269,13.8964 54.9029,13.1584 C55.5689,12.2934 55.8569,10.9974 55.8569,8.9794 C55.8569,7.3234 55.6589,6.0994 55.0649,5.2164 C54.5249,4.4054 53.6779,3.9384 52.5619,3.9384" id="Fill-44" fill="#838383"></path>
                                <path d="M61.6555,11.7179 C61.4575,12.1489 61.0435,12.3829 60.5215,12.3829 C59.8725,12.3829 59.5315,12.0229 59.5315,11.0499 C59.5315,10.4929 59.6385,10.1149 59.9635,9.8629 C60.3595,9.5559 60.9535,9.5389 61.8185,9.5389 L61.8185,10.5109 C61.8185,10.8169 61.8355,11.3209 61.6555,11.7179 M58.0355,8.7639 C57.3155,9.3589 57.0275,10.2579 57.0275,11.2669 C57.0275,13.3379 58.2165,14.3099 59.7835,14.3099 C61.1695,14.3099 61.8185,13.5539 62.0155,12.7069 L62.4665,14.1299 L64.2675,14.1299 L64.2675,8.0799 C64.2675,6.7649 64.2675,5.9369 63.7985,5.2169 C63.2775,4.4239 62.3405,4.0099 60.6295,4.0099 C58.9545,4.0099 57.7845,4.4059 57.7845,4.4059 L57.7845,6.3149 L57.9105,6.3149 C57.9105,6.3149 59.0985,5.8829 60.2335,5.8829 C60.9715,5.8829 61.4215,6.0629 61.6375,6.3869 C61.8185,6.6579 61.8185,7.0359 61.8185,7.5929 L61.8185,7.9539 C60.4855,7.9539 58.9905,7.9719 58.0355,8.7639" id="Fill-45" fill="#838383"></path>
                                <path d="M71.7941,14.0221 L71.7941,12.0231 L71.6681,12.0231 C71.6681,12.0231 71.0741,12.2751 70.4071,12.2751 C68.9851,12.2751 68.5351,11.1591 68.5351,9.1061 C68.5351,7.0531 68.9851,5.9911 70.4071,5.9911 C71.0741,5.9911 71.6681,6.2251 71.6681,6.2251 L71.7941,6.2251 L71.7941,4.2261 C71.7941,4.2261 71.1461,4.0101 70.1191,4.0101 C66.8961,4.0101 65.9421,6.1711 65.9421,9.1611 C65.9421,12.1671 66.8961,14.2391 70.1191,14.2391 C71.1641,14.2391 71.7941,14.0221 71.7941,14.0221" id="Fill-46" fill="#838383"></path>
                                <polygon id="Fill-47" fill="#838383" points="81.1936 4.1182 78.6366 4.1182 75.9176 8.0262 75.9176 0.2102 73.4506 0.2102 73.4506 14.1292 75.9176 14.1292 75.9176 10.9972 76.6926 10.0242 78.4926 14.1292 81.2476 14.1292 78.3306 7.9532"></polygon>
                            </g>
                        </g>
                    </g>
                </g>
            </g>
        </g>
    </g>
</svg>