<?xml version="1.0" encoding="UTF-8" standalone="no"?>
<svg width="76px" height="18px" viewBox="0 0 76 18" version="1.1" xmlns="http://www.w3.org/2000/svg" xmlns:xlink="http://www.w3.org/1999/xlink">
    <!-- Generator: Sketch 41.2 (35397) - http://www.bohemiancoding.com/sketch -->
    <title>menuLogo_Quantify</title>
    <desc>Created with Sketch.</desc>
    <defs></defs>
    <g id="Brand-Guides_Final-Document" stroke="none" stroke-width="1" fill="none" fill-rule="evenodd">
        <g id="Brand-Guide_4_Navigation-Menus" transform="translate(-1226.000000, -775.000000)">
            <g id="Group-10" transform="translate(1145.000000, 583.000000)">
                <g id="Group-9" transform="translate(23.000000, 0.000000)">
                    <g id="HeaderNav_promote">
                        <g id="Logos" transform="translate(44.000000, 169.000000)">
                            <g id="menuLogo_Quantify" transform="translate(14.000000, 23.000000)">
                                <path d="M12.6553,0 L5.3373,0 C5.0783,0 4.9373,0.034 4.9373,0.211 L4.9373,0.306 C4.9373,0.51 5.2323,0.752 5.5123,0.749 L12.1353,0.749 C12.4033,0.493 12.7013,0.268 13.0253,0.078 C12.9573,0.016 12.8293,0 12.6553,0" id="Fill-21" fill="#838383"></path>
                                <path d="M17.0618,16.3262 C17.0348,16.3882 17.0038,16.4502 16.9698,16.5092 C16.6588,17.0492 16.1068,17.3952 15.4928,17.4362 C15.4648,17.4392 2.5278,17.4382 2.4998,17.4362 C1.8838,17.3952 1.3298,17.0472 1.0178,16.5082 C0.6808,15.9232 0.6798,15.2272 1.0138,14.6472 L6.6108,4.9542 L6.6108,1.4812 L5.9538,1.4812 L5.9538,4.7422 L0.3238,14.4692 C0.2058,14.6742 0.1188,14.8922 0.0678,15.1192 C-0.0752,15.7012 0.0098,16.3052 0.3078,16.8202 C0.7338,17.5602 1.4848,18.0002 2.3148,18.0002 L15.6788,18.0002 C16.5078,18.0002 17.2568,17.5602 17.6828,16.8212 C17.6958,16.8002 17.7048,16.7782 17.7168,16.7562 C17.4468,16.7202 17.2048,16.5632 17.0618,16.3262" id="Fill-23" fill="#838383"></path>
                                <path d="M11.4425,12.9004 C10.8415,11.9764 10.4975,10.7934 10.3625,9.1074 C10.1455,9.1634 9.8935,9.1924 9.5915,9.1744 C8.6405,9.1184 8.1115,8.4904 8.0015,8.3494 C7.9615,8.4474 7.7705,8.8894 7.5695,9.2924 C6.5585,11.4624 5.8515,13.0664 5.4195,14.1794 C4.6625,16.1254 5.2955,16.7564 7.7255,16.7584 L14.9875,16.7664 C15.8545,16.7664 16.4445,15.9634 16.3015,15.1784 C16.2375,15.1804 16.1745,15.1824 16.1105,15.1824 C14.0365,15.1824 12.4225,14.3934 11.4425,12.9004" id="Fill-25" fill="#694188"></path>
                                <path d="M6.8553,7.8049 C6.7883,7.7959 6.7223,7.7899 6.6583,7.7899 C6.2053,7.7899 5.7873,7.9289 5.6153,8.2249 C5.4663,8.4829 1.8493,14.7389 1.8493,14.7389 C1.3343,15.6289 1.9773,16.7479 3.0033,16.7479 L3.6283,16.7479 C2.2593,16.1329 2.9983,14.9559 2.9983,14.9559 L6.8553,7.8049 Z" id="Fill-27" fill="#694188"></path>
                                <path d="M8.519,5.3601 C8.519,5.0991 8.306,4.8851 8.045,4.8851 C7.782,4.8851 7.57,5.0991 7.57,5.3601 C7.57,5.6231 7.782,5.8361 8.045,5.8361 C8.306,5.8361 8.519,5.6231 8.519,5.3601" id="Fill-29" fill="#694188"></path>
                                <path d="M9.7537,4.3952 C10.0537,4.3532 10.2627,4.0782 10.2217,3.7782 C10.1797,3.4792 9.9027,3.2712 9.6037,3.3122 C9.3047,3.3542 9.0957,3.6302 9.1377,3.9292 C9.1797,4.2282 9.4567,4.4362 9.7537,4.3952" id="Fill-31" fill="#694188"></path>
                                <path d="M14.4369,11.2212 C14.0729,10.5302 13.9099,9.5302 13.9099,7.2562 C13.9099,4.9832 14.0729,3.9642 14.4369,3.2732 C14.8009,2.5822 15.4009,2.2732 16.1459,2.2732 C16.9099,2.2732 17.5289,2.5822 17.8919,3.2732 C18.2559,3.9642 18.4019,4.9832 18.4019,7.2562 C18.4019,9.5302 18.2559,10.5302 17.8919,11.2212 C17.5289,11.9122 16.9099,12.2212 16.1459,12.2212 C15.4549,12.2212 14.8369,11.9672 14.4369,11.2212 M20.1109,12.3482 C20.8569,11.2032 21.1119,9.6752 21.1119,7.2382 C21.1119,4.8012 20.8569,3.2192 20.1109,2.0732 C19.3109,0.8542 17.9649,0.2002 16.1649,0.2002 C14.3819,0.2002 12.9999,0.8542 12.1999,2.0732 C11.4539,3.2192 11.1999,4.8192 11.1999,7.2022 C11.1999,9.5842 11.4539,11.2572 12.1999,12.4032 C12.9999,13.6222 14.3459,14.2762 16.1099,14.2762 C16.3649,14.2762 16.6189,14.2582 16.8559,14.2222 L17.8379,15.8592 L20.6019,15.8592 L19.0559,13.4402 C19.4749,13.1492 19.8199,12.7852 20.1109,12.3482" id="Fill-33" fill="#838383"></path>
                                <path d="M27.4783,10.6027 C27.4783,11.2207 27.4243,12.1667 26.3513,12.1667 C25.8593,12.1667 25.4963,11.9667 25.2963,11.6397 C25.0963,11.3117 25.0963,10.9117 25.0963,10.4387 L25.0963,3.9647 L22.5683,3.9647 L22.5683,10.4207 C22.5683,11.5487 22.5863,12.4397 22.9863,13.1307 C23.3863,13.8037 24.1503,14.2587 25.2413,14.2587 C26.6053,14.2587 27.4243,13.5677 27.6603,12.5487 L28.1153,14.0767 L30.0063,14.0767 L30.0063,3.9647 L27.4783,3.9647 L27.4783,10.6027 Z" id="Fill-35" fill="#838383"></path>
                                <path d="M36.0392,11.6395 C35.8392,12.0755 35.4212,12.3125 34.8932,12.3125 C34.2382,12.3125 33.8932,11.9485 33.8932,10.9665 C33.8932,10.4025 34.0022,10.0205 34.3302,9.7665 C34.7302,9.4575 35.3302,9.4385 36.2032,9.4385 L36.2032,10.4205 C36.2032,10.7305 36.2212,11.2395 36.0392,11.6395 M35.0022,3.8555 C33.3112,3.8555 32.1292,4.2555 32.1292,4.2555 L32.1292,6.1835 L32.2562,6.1835 C32.2562,6.1835 33.4572,5.7475 34.6022,5.7475 C35.3482,5.7475 35.8032,5.9285 36.0212,6.2565 C36.2032,6.5285 36.2032,6.9105 36.2032,7.4745 L36.2032,7.8385 C34.8572,7.8385 33.3472,7.8565 32.3842,8.6565 C31.6562,9.2565 31.3652,10.1665 31.3652,11.1845 C31.3652,13.2765 32.5652,14.2585 34.1482,14.2585 C35.5482,14.2585 36.2032,13.4945 36.4032,12.6395 L36.8572,14.0765 L38.6762,14.0765 L38.6762,7.9655 C38.6762,6.6385 38.6762,5.8015 38.2032,5.0735 C37.6762,4.2735 36.7302,3.8555 35.0022,3.8555" id="Fill-37" fill="#838383"></path>
                                <path d="M44.8264,3.7828 C43.4984,3.7828 42.6254,4.3828 42.3714,5.5108 L41.8984,3.9648 L40.0064,3.9648 L40.0064,14.0768 L42.5344,14.0768 L42.5344,7.4378 C42.5344,6.8378 42.6444,5.8928 43.8264,5.8928 C44.3354,5.8928 44.6624,6.0738 44.8624,6.4018 C45.0624,6.7288 45.0444,7.1288 45.0444,7.6198 L45.0444,14.0768 L47.5724,14.0768 L47.5724,7.6388 C47.5724,6.4928 47.5724,5.6378 47.1724,4.9468 C46.7904,4.2918 46.0634,3.7828 44.8264,3.7828" id="Fill-39" fill="#838383"></path>
                                <path d="M53.7198,12.2759 C53.3558,12.2759 53.0828,12.1849 52.9378,11.9489 C52.7738,11.6939 52.7738,11.3299 52.7738,10.8389 L52.7738,5.9469 L54.9378,5.9469 L54.9378,4.0559 L52.7738,4.0559 L52.7738,1.1089 L50.2828,1.7459 L50.2828,4.0559 L48.8638,4.0559 L48.8638,5.9469 L50.2828,5.9469 L50.2828,10.8209 C50.2828,11.8029 50.2828,12.5849 50.6828,13.2039 C51.1548,13.9129 52.1008,14.1859 53.2648,14.1859 C54.2838,14.1859 54.9378,13.9859 54.9378,13.9859 L54.9378,12.0939 L54.8108,12.0939 C54.8108,12.0939 54.2468,12.2759 53.7198,12.2759" id="Fill-41" fill="#838383"></path>
                                <polygon id="Fill-43" fill="#838383" points="56.37 2.71 58.898 2.71 58.898 0.382 56.37 0.382"></polygon>
                                <polygon id="Fill-45" fill="#838383" points="56.388 14.076 58.88 14.076 58.88 3.964 56.388 3.964"></polygon>
                                <path d="M64.2807,4.0555 L64.2807,3.2915 C64.2807,2.8915 64.2807,2.5645 64.4257,2.3095 C64.5537,2.0915 64.7717,1.8915 65.2987,1.8915 C65.7717,1.8915 66.2817,2.0555 66.2817,2.0555 L66.4087,2.0555 L66.4087,0.1275 C66.4087,0.1275 65.8627,0.0005 65.0627,0.0005 C63.3897,0.0005 62.6077,0.5635 62.1897,1.2725 C61.7887,1.9645 61.7887,2.6735 61.7887,3.2915 L61.7887,4.0555 L60.2437,4.0555 L60.2437,5.9465 L61.7887,5.9465 L61.7887,14.0765 L64.2807,14.0765 L64.2807,5.9465 L66.4087,5.9465 L66.4087,4.0555 L64.2807,4.0555 Z" id="Fill-46" fill="#838383"></path>
                                <polygon id="Fill-47" fill="#838383" points="71.5192 10.4937 69.8282 3.9647 67.0812 3.9647 70.1732 13.9857 68.9732 17.4597 71.3922 17.4597 75.5022 3.9647 73.2832 3.9647"></polygon>
                                <path d="M10.6408,6.9347 C10.6088,6.7047 10.4818,6.5117 10.3048,6.3877 C10.1438,6.2747 9.9418,6.2187 9.7308,6.2477 C9.2898,6.3087 8.9828,6.7157 9.0428,7.1567 C9.1048,7.5977 9.5118,7.9057 9.9528,7.8437 C10.0818,7.8267 10.1978,7.7787 10.2978,7.7097 C10.5418,7.5427 10.6838,7.2477 10.6408,6.9347" id="Fill-48" fill="#694188"></path>
                            </g>
                        </g>
                    </g>
                </g>
            </g>
        </g>
    </g>
</svg>