<?xml version="1.0" encoding="UTF-8" standalone="no"?>
<svg width="55px" height="18px" viewBox="0 0 55 18" version="1.1" xmlns="http://www.w3.org/2000/svg" xmlns:xlink="http://www.w3.org/1999/xlink">
    <!-- Generator: Sketch 41.2 (35397) - http://www.bohemiancoding.com/sketch -->
    <title>logo_scope_small</title>
    <desc>Created with Sketch.</desc>
    <defs></defs>
    <g id="Brand-Guides_Final-Document" stroke="none" stroke-width="1" fill="none" fill-rule="evenodd">
        <g id="Brand-Guide_4_Navigation-Menus" transform="translate(-1228.000000, -857.000000)">
            <g id="logo_scope_small" transform="translate(1228.000000, 857.000000)">
                <g id="Group-17">
                    <path d="M0.448568415,17.0061379 C0.449932473,17.0088506 0.451296531,17.0088506 0.452660589,17.0129195 C0.451296531,17.0088506 0.449932473,17.0088506 0.448568415,17.0061379" id="Fill-1" fill="#8C8E8A"></path>
                    <path d="M5.52744859,0.782094972 L11.3915514,0.782094972 C11.6103158,0.502344068 11.8614898,0.250769515 12.1511502,0.0364279953 L5.35223447,0.0364279953 C5.09194527,0.0364279953 4.9511663,0.0696358364 4.9511663,0.246744322 L4.9511663,0.341336354 C4.9511663,0.544608593 5.24791623,0.785113866 5.52744859,0.782094972" id="Fill-3" fill="#6D6D6D"></path>
                    <path d="M17.9618785,15.0112523 C17.909213,14.8170368 17.8302147,14.6278527 17.7289348,14.4527568 L17.5587847,14.1599241 C17.3653402,14.2877239 17.1617677,14.4064671 16.9409777,14.5070969 C16.989592,14.5896134 17.0169376,14.6379157 17.0169376,14.6379157 C17.3531866,15.2165372 17.3541994,15.9088704 17.0179504,16.4864855 C16.7049957,17.0238488 16.1520077,17.3690091 15.5352135,17.4112736 C15.5088807,17.4132862 2.53493313,17.4122799 2.50657478,17.4112736 C1.88876775,17.3690091 1.33375422,17.0228425 1.02079952,16.4844729 C0.682524847,15.9018263 0.681512049,15.2084868 1.01674832,14.6318779 L6.6286643,4.97242136 L6.6286643,1.51176181 L5.97034533,1.51176181 L5.97034533,4.76109874 L0.323994211,14.4527568 C0.205496797,14.6570354 0.119408932,14.8754021 0.0677562135,15.1008129 C-0.075048362,15.6804407 0.0100267042,16.2832133 0.308802234,16.7954191 C0.352352566,16.8718977 0.40096689,16.9413323 0.45160681,17.0107669 C0.892174117,17.6155521 1.57277465,17.9707754 2.32123267,17.9707754 L15.723594,17.9707754 C16.5540887,17.9707754 17.3055851,17.5320294 17.732986,16.7964254 C18.0408768,16.2671125 18.1269646,15.6492454 17.9740321,15.0565358 L17.9618785,15.0112523 Z" id="Fill-5" fill="#6D6D6D"></path>
                    <path d="M7.74790782,16.7339343 L15.0299284,16.7419846 C16.0427268,16.7419846 16.6807898,15.6551826 16.2128769,14.7766842 C15.5991211,14.9568116 14.9134566,15.0564351 14.1548705,15.0564351 C12.4817276,15.0564351 11.2562415,14.6096387 11.2045888,14.5905191 C10.8126358,14.4456121 10.5533594,14.0722755 10.5533594,13.6576806 L10.5533594,11.5132591 C10.5533594,10.962814 11.0010163,10.5170239 11.555017,10.5170239 L11.6836424,10.5170239 C11.8102422,10.5170239 11.9358292,10.541175 12.0543266,10.5884711 C12.354115,10.7052017 13.2950047,11.0131289 14.0080148,11.0131289 C14.01713,11.0131289 14.0252323,11.0121226 14.0333347,11.0121226 L12.5830074,8.51147155 L12.4503308,8.28102926 C12.1707985,7.79297463 11.6380665,8.38266538 11.344355,8.58694392 C10.9848115,8.8797767 10.5179115,9.23097477 9.61854648,9.17764097 C8.66449038,9.12128827 8.13378401,8.49637708 8.02338899,8.35549533 C7.98388985,8.45310626 7.79247095,8.89285857 7.59092407,9.29437156 C6.57610006,11.4579127 5.86916677,13.0559143 5.43467626,14.1638486 C4.67507745,16.1049979 5.31010205,16.7319217 7.74790782,16.7339343" id="Fill-7" fill="#2A8875"></path>
                    <path d="M5.63126043,8.23202254 C5.48237906,8.48762228 1.85453516,14.7206334 1.85453516,14.7206334 C1.33699518,15.6091947 1.98316056,16.7241732 3.01216374,16.7241732 L3.63807316,16.7241732 C2.26573132,16.1113376 3.00608695,14.9379938 3.00608695,14.9379938 L6.87497687,7.81340248 C6.80711938,7.8043458 6.74027468,7.79830801 6.67646838,7.79830801 C6.22374749,7.79830801 5.80343616,7.93717716 5.63126043,8.23202254" id="Fill-9" fill="#2A8875"></path>
                    <path d="M8.06683804,5.8509197 C8.33016562,5.8509197 8.54285329,5.63859078 8.54285329,5.37695325 C8.54285329,5.11632201 8.33016562,4.90399309 8.06683804,4.90399309 C7.80452325,4.90399309 7.59082279,5.11632201 7.59082279,5.37695325 C7.59082279,5.63859078 7.80452325,5.8509197 8.06683804,5.8509197" id="Fill-11" fill="#2A8875"></path>
                    <path d="M9.98112831,7.85214496 C10.4237212,7.79176707 10.7316119,7.38522259 10.670844,6.94647657 C10.6090633,6.50672425 10.1998928,6.20080959 9.75831266,6.26118749 C9.31673255,6.32257168 9.00782904,6.72810986 9.06859694,7.16685588 C9.13037765,7.6066082 9.5385354,7.91352915 9.98112831,7.85214496" id="Fill-13" fill="#2A8875"></path>
                    <path d="M9.78140446,4.41563656 C10.0822056,4.37337204 10.2918549,4.09965892 10.2503301,3.80078835 C10.2077926,3.50292408 9.93028583,3.29562665 9.6304975,3.33688488 C9.33172197,3.3781431 9.1220727,3.65286252 9.16359743,3.95173309 C9.20512217,4.24959736 9.48262893,4.45689479 9.78140446,4.41563656" id="Fill-15" fill="#2A8875"></path>
                    <path d="M16.6894998,6.25917489 C15.4812313,5.31727976 14.2172589,4.78293541 14.2172589,3.45260917 C14.2172589,2.90317035 14.4400746,2.50366996 14.8745651,2.27825916 C15.1237135,2.17159155 15.427553,2.11221995 15.7972244,2.11221995 C16.7553317,2.11221995 17.8805508,2.49763217 17.8805508,2.49763217 L18.1388144,2.62241315 L18.1388144,0.332078411 C18.1388144,0.332078411 16.9862498,0 15.6675862,0 C14.6193399,0 13.7625124,0.211322625 13.1041935,0.609816718 C12.0154352,1.22063973 11.4442169,2.32354258 11.4442169,3.83399619 C11.4442169,5.70369828 12.3294027,6.56508955 13.2702924,7.31679431 C14.6163015,8.37944523 15.8701459,9.02045719 15.8701459,10.3950605 C15.8701459,11.4214847 15.1885326,12.0071503 14.0086225,12.0071503 C13.2814332,12.0071503 12.4711945,11.7807332 12.026576,11.6338136 C11.8635154,11.5784672 11.7642612,11.5402279 11.7642612,11.5402279 L11.755146,11.5402279 C11.7105829,11.5231208 11.6842501,11.5130579 11.6842501,11.5130579 L11.5546119,11.5130579 L11.5546119,13.6574794 C11.5546119,13.6574794 11.5839831,13.6675423 11.634623,13.6846494 L11.634623,13.7007502 C11.634623,13.7007502 12.7304709,14.1062884 14.2547325,14.1062884 C16.9680194,14.1062884 18.6776231,12.7960881 18.6776231,10.0810955 C18.6776231,8.14296515 17.8045909,7.12761025 16.6894998,6.25917489" id="Fill-17" fill="#787878"></path>
                    <path d="M24.3265062,14.1061877 C25.4041237,14.1061877 26.0553531,13.8848021 26.0553531,13.8848021 L26.0553531,11.835979 L25.9257149,11.835979 C25.9257149,11.835979 25.3119591,12.0935913 24.624269,12.0935913 C23.1567241,12.0935913 22.6918496,10.9494302 22.6918496,8.84425437 C22.6918496,6.73907851 23.1567241,5.65026384 24.624269,5.65026384 C25.3119591,5.65026384 25.9257149,5.88976282 25.9257149,5.88976282 L26.0553531,5.88976282 L26.0553531,3.84093965 C26.0553531,3.84093965 25.3858934,3.61854775 24.3265062,3.61854775 C21.0004763,3.61854775 20.0160362,5.83542271 20.0160362,8.89960077 C20.0160362,11.9839048 21.0004763,14.1061877 24.3265062,14.1061877" id="Fill-19" fill="#787878"></path>
                    <path d="M30.2737598,5.90888248 C30.4965754,5.57579777 30.8500421,5.35441217 31.3513773,5.35441217 C31.8537253,5.35441217 32.1879488,5.57579777 32.4107644,5.90888248 C32.7267575,6.38888673 32.8574085,7.22008905 32.8574085,8.86236774 C32.8574085,10.5056527 32.7267575,11.336855 32.4107644,11.8168593 C32.1879488,12.149944 31.8537253,12.3703233 31.3513773,12.3703233 C30.8500421,12.3703233 30.4965754,12.1489377 30.2737598,11.8168593 C29.9577667,11.336855 29.8463588,10.5237661 29.8463588,8.88148741 C29.8463588,7.23820242 29.9577667,6.38888673 30.2737598,5.90888248 M31.3149165,14.2168805 C32.7085271,14.2168805 33.8985653,13.8113424 34.6227161,12.8704535 C35.2729327,12.0392512 35.5322091,10.8015044 35.5322091,8.86236774 C35.5322091,6.92423738 35.2729327,5.68649058 34.603473,4.83818118 C33.8793221,3.91439942 32.7834742,3.50785494 31.3888508,3.50785494 C29.9770098,3.50785494 28.8062149,3.93351909 28.0810512,4.87440792 C27.4308346,5.70460394 27.1715582,6.92423738 27.1715582,8.89960077 C27.1715582,10.8015044 27.4115915,12.0392512 28.0810512,12.8885669 C28.7687413,13.7741093 29.8463588,14.2168805 31.3149165,14.2168805" id="Fill-21" fill="#787878"></path>
                    <path d="M49.5085233,7.94009543 C49.5642272,6.14888461 49.8802203,5.33579565 50.84643,5.33579565 C51.8126397,5.33579565 52.0911592,6.13077124 52.0911592,7.94009543 L49.5085233,7.94009543 Z M53.9131836,4.9674905 C53.3186709,4.02458908 52.3149877,3.50835809 50.9021339,3.50835809 C47.9285578,3.50835809 46.9441177,5.81680619 46.9441177,8.91821729 C46.9441177,10.5796156 47.2226373,11.9471749 47.9852745,12.8508307 C48.6719518,13.6629134 49.7495693,14.1066909 51.3670084,14.1066909 C52.8537964,14.1066909 54.116756,13.7373794 54.116756,13.7373794 L54.116756,11.7801294 L53.9871178,11.7801294 C53.9871178,11.7801294 52.7413758,12.2047873 51.6819887,12.2047873 C50.1587399,12.2047873 49.5085233,11.3192448 49.5085233,9.67495355 L54.6180912,9.67495355 C54.6180912,7.56977768 54.5998609,6.05630517 53.9131836,4.9674905 L53.9131836,4.9674905 Z" id="Fill-23" fill="#787878"></path>
                    <path d="M42.8550454,8.53028933 C42.8550454,9.7308031 42.7800983,10.708925 42.4458749,11.2442756 C42.2423024,11.5773603 41.8888357,11.835979 41.350027,11.835979 C40.8102054,11.835979 40.4577516,11.5773603 40.2531663,11.2442756 C39.9189428,10.708925 39.8439958,9.7308031 39.8439958,8.53028933 C39.8439958,7.05304355 39.9564164,6.29630729 40.2531663,5.79818968 C40.475982,5.42787194 40.8486918,5.18837296 41.350027,5.18837296 C41.8513622,5.18837296 42.2230592,5.40975857 42.4458749,5.78007631 C42.7436376,6.27819393 42.8550454,7.05304355 42.8550454,8.53028933 M39.8632389,12.5605137 C40.1873344,13.486308 40.9206005,13.9139848 42.0093588,13.9139848 C43.1224242,13.9139848 44.0481219,13.4621569 44.6335194,12.693345 C45.3505807,11.7554751 45.6159339,10.2540782 45.6159339,8.39645167 C45.6159339,6.7461226 45.4083102,5.20749263 44.6527626,4.23138336 C44.0673651,3.46156523 43.1609105,3.10533566 42.1784961,3.10533566 C40.8567942,3.10533566 39.9878131,3.72521536 39.7052424,4.81302373 L39.2140351,3.29250713 L37.2684494,3.29250713 L37.44,17.28 L39.8880011,17.28 L39.8632389,12.5605137 Z" id="Fill-25" fill="#787878"></path>
                </g>
            </g>
        </g>
    </g>
</svg>