<?xml version="1.0" encoding="UTF-8" standalone="no"?>
<svg width="78px" height="18px" viewBox="0 0 78 18" version="1.1" xmlns="http://www.w3.org/2000/svg" xmlns:xlink="http://www.w3.org/1999/xlink">
    <!-- Generator: Sketch 41.2 (35397) - http://www.bohemiancoding.com/sketch -->
    <title>menuLogo_Promote</title>
    <desc>Created with Sketch.</desc>
    <defs></defs>
    <g id="Brand-Guides_Final-Document" stroke="none" stroke-width="1" fill="none" fill-rule="evenodd">
        <g id="Brand-Guide_4_Navigation-Menus" transform="translate(-1226.000000, -900.000000)">
            <g id="Group-10" transform="translate(1145.000000, 583.000000)">
                <g id="Group-9" transform="translate(23.000000, 0.000000)">
                    <g id="HeaderNav_promote">
                        <g id="Logos" transform="translate(44.000000, 169.000000)">
                            <g id="menuLogo_Promote" transform="translate(14.000000, 148.000000)">
                                <path d="M10.9066225,0 L5.22795463,0 C4.97214217,0 5.01474344,0.104013648 5.01474344,0.274181569 L5.01474344,0.365442586 C5.01474344,0.56111577 5.12534291,0.797039446 5.40102231,0.797039446 L10.9543442,0.797039446 L10.9543442,0.233931077 C10.9543442,0.171762001 10.8941289,0.199259861 10.9066225,0" id="Fill-1" fill="#838383"></path>
                                <g id="Group-5" transform="translate(0.000000, 1.594079)" fill="#838383">
                                    <path d="M16.752992,12.5595682 C17.0849952,13.1188907 17.0677909,13.7856142 16.7368117,14.3435418 C16.4293862,14.8614182 15.8749552,15.1943814 15.2685015,15.2342334 C15.241466,15.2364252 2.45780678,15.2358274 2.4299521,15.2340341 C1.82104062,15.1941821 1.27193477,14.8604219 0.964099604,14.3413499 C0.63127715,13.7796364 0.712383422,13.1111195 1.0425433,12.5535905 L6.65321303,3.23819193 L6.65321303,1.99259861e-05 L6.03877157,1.99259861e-05 L6.03877157,3.03494687 L0.37648876,12.382227 C0.259744884,12.5788965 0.12436295,12.7893149 0.0731594958,13.0071059 C-0.0679572248,13.5664283 -0.00897084523,14.1299352 0.285141797,14.6248967 C0.706853449,15.3350589 1.42267774,15.741549 2.24275227,15.741549 L15.4438221,15.741549 C16.2622581,15.741549 17.0024552,15.3352581 17.4237573,14.625893 C17.7270865,14.1145922 17.8114698,13.5166134 17.6607269,12.9447376 L17.6492573,12.9116604 C17.5970298,12.7227621 17.5339471,12.5462178 17.4337931,12.3772455 L15.4602072,9.01174642 L15.4602072,10.3075333 C16.2794625,11.6051135 16.752992,12.5595682 16.752992,12.5595682" id="Fill-3"></path>
                                </g>
                                <path d="M14.4775105,14.9444896 L11.7997746,14.9444896 C11.2959327,14.9444896 10.9543032,14.6179027 10.9543032,14.1277234 L10.9543032,8.50201977 C10.5446756,8.72678489 10.1622882,8.92843587 9.46387305,8.88798612 C8.52480169,8.83398669 7.98552691,8.23062783 7.87636115,8.09533039 C7.83724171,8.18918178 7.64062044,8.61400381 7.44113178,9.00156424 C6.44286923,11.0874165 5.74056265,12.6284922 5.31373066,13.6975214 C4.56595541,15.5683722 5.18920385,16.1743215 7.59003143,16.1765133 L14.7628161,16.1842845 C15.7774638,16.1842845 16.4474098,15.0985175 15.940086,14.2434934 L15.4602072,13.3751189 L15.4602072,14.1277234 C15.4602072,14.6179027 14.9813525,14.9444896 14.4775105,14.9444896" id="Fill-6" fill="#0988D5"></path>
                                <path d="M6.72819536,7.57233303 C6.66122125,7.5635656 6.59629527,7.55738854 6.53341742,7.55738854 C6.08610405,7.55738854 5.67299457,7.69089265 5.50320392,7.97603351 C5.3561476,8.22311574 1.7825561,14.2218339 1.7825561,14.2218339 C1.27338895,15.0772564 1.90913104,16.1401086 2.92357388,16.1401086 L3.53965385,16.1401086 C2.18808746,15.542329 2.91742947,14.4316545 2.91742947,14.4316545 L6.72819536,7.57233303 Z" id="Fill-8" fill="#0988D5"></path>
                                <path d="M8.37112989,5.22262089 C8.37112989,4.97135421 8.16181016,4.76651507 7.9029255,4.76651507 C7.64322158,4.76651507 7.43369704,4.97135421 7.43369704,5.22262089 C7.43369704,5.47468462 7.64322158,5.67992227 7.9029255,5.67992227 C8.16181016,5.67992227 8.37112989,5.47468462 8.37112989,5.22262089" id="Fill-10" fill="#0988D5"></path>
                                <path d="M8.88910403,6.94886885 C8.95013855,7.37289384 9.35198326,7.66919325 9.78844151,7.60981381 C10.2238757,7.55083289 10.5274098,7.15928726 10.4669897,6.73605932 C10.4065696,6.31203433 10.003496,6.017329 9.56847147,6.07571214 C9.13303729,6.13469306 8.82888877,6.52603942 8.88910403,6.94886885" id="Fill-12" fill="#0988D5"></path>
                                <path d="M16.7943644,7.19152751 C16.3574965,7.54262338 15.7879093,7.57191458 15.3891368,7.57191458 L14.4361381,7.57191458 L14.4361381,2.19189833 L15.3891368,2.19189833 C15.8257999,2.19189833 16.3574965,2.29372012 16.7753167,2.60775366 C17.2312323,2.95884953 17.4780329,3.70806661 17.4780329,4.9090058 C17.4780329,5.96209416 17.2881705,6.78523665 16.7943644,7.19152751 M18.4465975,0.826370497 C17.4589852,0.253498396 16.2057295,0.199299713 15.2941032,0.199299713 L11.9783723,0.199299713 L11.9783723,14.14749 L14.4361381,14.14749 L14.4361381,9.76377306 L15.3131509,9.76377306 C16.3955919,9.76377306 17.5159235,9.62708079 18.4656452,9.03587679 C19.5859767,8.33368503 20.288693,6.97254092 20.288693,4.90342652 C20.288693,2.76018745 19.5480862,1.45443758 18.4465975,0.826370497" id="Fill-16" fill="#838383"></path>
                                <path d="M27.5442225,3.5866775 L27.1059209,3.5866775 C25.7195362,3.5866775 24.8269575,4.05593448 24.4851233,5.5709072 L23.9343789,3.78593737 L22.0142494,3.78593737 L22.0142494,14.1474502 L24.676829,14.1474502 L24.676829,8.12302751 C24.676829,7.38397268 24.7716578,6.25695891 26.3669526,6.25695891 C26.8796016,6.25695891 27.5442225,6.36794665 27.5442225,6.36794665 L27.5442225,3.5866775 Z" id="Fill-18" fill="#838383"></path>
                                <path d="M31.2645221,6.03530224 C31.4924799,5.70273753 31.853157,5.48116056 32.3660108,5.48116056 C32.8786598,5.48116056 33.2204941,5.70273753 33.4484518,6.03530224 C33.7712384,6.51571776 33.9041626,7.34702991 33.9041626,8.99132228 C33.9041626,10.6358139 33.7712384,11.4671261 33.4484518,11.9475416 C33.2204941,12.2801063 32.8786598,12.5016833 32.3660108,12.5016833 C31.853157,12.5016833 31.4924799,12.2801063 31.2645221,11.9475416 C30.9417355,11.4671261 30.8276542,10.6541458 30.8276542,9.00985345 C30.8276542,7.36556107 30.9417355,6.51571776 31.2645221,6.03530224 M32.4039014,3.63342387 C30.9605784,3.63342387 29.7642609,4.05844515 29.0236541,5.00074504 C28.3590333,5.83205718 28.0931849,7.05152753 28.0931849,9.02838462 C28.0931849,10.9313163 28.3399856,12.1693178 29.0236541,13.0191611 C29.7261655,13.9058675 30.8276542,14.34942 32.3279154,14.34942 C33.7523955,14.34942 34.9677607,13.9429298 35.7083675,13.00063 C36.3729883,12.1693178 36.6388367,10.9313163 36.6388367,8.99132228 C36.6388367,7.05152753 36.3729883,5.81352601 35.6893198,4.9636827 C34.9487131,4.03991399 33.8283815,3.63342387 32.4039014,3.63342387" id="Fill-20" fill="#838383"></path>
                                <path d="M48.4693948,3.6704065 C47.0641672,3.6704065 46.3045128,4.33553592 45.9626785,5.44401852 C45.6777825,4.35406708 44.8992852,3.6704065 43.4369145,3.6704065 C41.9366533,3.6704065 41.1579512,4.3564582 40.9301982,5.3910154 L40.4363921,3.78597722 L38.6041277,3.78597722 L38.6041277,14.14749 L41.2667073,14.14749 L41.2667073,7.38401254 C41.2667073,6.73741429 41.297839,5.81364557 42.4372183,5.81364557 C42.9689149,5.81364557 43.3183273,6.01689063 43.489142,6.312393 C43.6792093,6.64495771 43.7244731,7.06997899 43.7244731,7.53186335 L43.7244731,14.14749 L46.3870527,14.14749 L46.3870527,7.38401254 C46.3870527,6.73741429 46.3931972,5.81364557 47.5327812,5.81364557 C48.0833208,5.81364557 48.4261791,6.01689063 48.5971987,6.312393 C48.7870611,6.64495771 48.8448186,7.06997899 48.8448186,7.53186335 L48.8448186,14.14749 L51.3025844,14.14749 L51.3025844,7.56892569 C51.3025844,6.42338074 51.2818982,5.55500627 50.864078,4.85281452 C50.4843532,4.20621627 49.7228554,3.6704065 48.4693948,3.6704065" id="Fill-22" fill="#838383"></path>
                                <path d="M56.1978394,6.03530224 C56.4255924,5.70273753 56.7864744,5.48116056 57.2993282,5.48116056 C57.8119771,5.48116056 58.1538114,5.70273753 58.3817692,6.03530224 C58.7045558,6.51571776 58.8374799,7.34702991 58.8374799,8.99132228 C58.8374799,10.6358139 58.7045558,11.4671261 58.3817692,11.9475416 C58.1538114,12.2801063 57.8119771,12.5016833 57.2993282,12.5016833 C56.7864744,12.5016833 56.4255924,12.2801063 56.1978394,11.9475416 C55.8750529,11.4671261 55.7609716,10.6541458 55.7609716,9.00985345 C55.7609716,7.36556107 55.8750529,6.51571776 56.1978394,6.03530224 M57.3372187,3.63342387 C55.8938957,3.63342387 54.6975782,4.05844515 53.9569715,5.00074504 C53.2921458,5.83205718 53.0262975,7.05152753 53.0262975,9.02838462 C53.0262975,10.9313163 53.2730981,12.1693178 53.9569715,13.0191611 C54.6594829,13.9058675 55.7609716,14.34942 57.2612328,14.34942 C58.6855081,14.34942 59.9010781,13.9429298 60.6416849,13.00063 C61.3063057,12.1693178 61.572154,10.9313163 61.572154,8.99132228 C61.572154,7.05152753 61.3063057,5.81352601 60.6226372,4.9636827 C59.8820304,4.03991399 58.761494,3.63342387 57.3372187,3.63342387" id="Fill-24" fill="#838383"></path>
                                <path d="M67.5916321,12.2195313 C67.2119073,12.2195313 66.9567093,12.1667274 66.8047374,11.92642 C66.6339227,11.6677807 66.6636207,11.3378064 66.6636207,10.839059 L66.6636207,5.77845628 L68.9165727,5.77845628 L68.9165727,3.78585766 L66.6636207,3.78585766 L66.6636207,0.954375032 L64.2058549,1.60117254 L64.2058549,3.78585766 L62.5673444,3.78585766 L62.5673444,5.77845628 L64.2058549,5.77845628 L64.2058549,10.8205278 C64.2058549,11.8182219 64.1040624,12.612671 64.5218826,13.2409373 C65.0156887,13.961461 65.9787233,14.2386315 67.1940885,14.2386315 C68.2574819,14.2386315 68.9165727,14.0353864 68.9165727,14.0353864 L68.9165727,11.955512 L68.7310114,11.955512 C68.7310114,11.955512 68.1423765,12.2195313 67.5916321,12.2195313" id="Fill-26" fill="#838383"></path>
                                <path d="M72.6429348,7.97039446 C72.6998731,6.1770557 73.0226597,5.36527103 74.0102719,5.36527103 C74.9978841,5.36527103 75.2825753,6.1770557 75.2825753,7.97039446 L72.6429348,7.97039446 Z M77.1437185,5.07275755 C76.5360359,4.13045767 75.5105331,3.62334132 74.0672101,3.62334132 C71.0287972,3.62334132 70.0221372,5.93794387 70.0221372,9.04181473 C70.0221372,10.7046383 70.3070333,12.0743506 71.0857354,12.9795881 C71.7882468,13.7925683 72.870483,14.2373164 74.5227161,14.2373164 C76.042025,14.2373164 77.3139188,13.8690841 77.3139188,13.8690841 L77.3139188,11.7563318 L77.2197044,11.7563318 C77.2197044,11.7563318 75.9471962,12.2381422 74.8647551,12.2381422 C73.3075557,12.2381422 72.6429348,11.557072 72.6429348,9.76373321 L77.8652776,9.76373321 C77.8652776,7.77113459 77.8464347,6.16290825 77.1437185,5.07275755 L77.1437185,5.07275755 Z" id="Fill-28" fill="#838383"></path>
                            </g>
                        </g>
                    </g>
                </g>
            </g>
        </g>
    </g>
</svg>