<?xml version="1.0" encoding="UTF-8" standalone="no"?>
<svg width="62px" height="26px" viewBox="0 0 62 26" version="1.1" xmlns="http://www.w3.org/2000/svg" xmlns:xlink="http://www.w3.org/1999/xlink">
    <!-- Generator: Sketch 41.2 (35397) - http://www.bohemiancoding.com/sketch -->
    <title>menuLogo_scope</title>
    <desc>Created with Sketch.</desc>
    <defs>
        <filter x="-50%" y="-50%" width="200%" height="200%" filterUnits="objectBoundingBox" id="filter-1">
            <feOffset dx="0" dy="2" in="SourceAlpha" result="shadowOffsetOuter1"></feOffset>
            <feGaussianBlur stdDeviation="2" in="shadowOffsetOuter1" result="shadowBlurOuter1"></feGaussianBlur>
            <feColorMatrix values="0 0 0 0 0   0 0 0 0 0   0 0 0 0 0  0 0 0 0.335314764 0" type="matrix" in="shadowBlurOuter1" result="shadowMatrixOuter1"></feColorMatrix>
            <feMerge>
                <feMergeNode in="shadowMatrixOuter1"></feMergeNode>
                <feMergeNode in="SourceGraphic"></feMergeNode>
            </feMerge>
        </filter>
    </defs>
    <g id="Brand-Guides_Final-Document" stroke="none" stroke-width="1" fill="none" fill-rule="evenodd">
        <g id="Brand-Guide_4_Navigation-Menus" transform="translate(-1220.000000, -860.000000)">
            <g id="Group-10" transform="translate(1145.000000, 585.000000)">
                <g id="Group-9" transform="translate(22.000000, 0.000000)">
                    <g id="HeaderNav_promote">
                        <g id="Logos" filter="url(#filter-1)" transform="translate(43.000000, 168.000000)">
                            <g id="menuLogo_scope" transform="translate(14.000000, 109.000000)">
                                <path d="M0.4429,16.8997 C0.4439,16.9017 0.4449,16.9017 0.4459,16.9047 C0.4449,16.9017 0.4439,16.9017 0.4429,16.8997" id="Fill-1" fill="#8C8E8A"></path>
                                <path d="M5.4576,0.7772 L11.2476,0.7772 C11.4636,0.4992 11.7116,0.2492 11.9976,0.0362 L5.2846,0.0362 C5.0276,0.0362 4.8886,0.0692 4.8886,0.2452 L4.8886,0.3392 C4.8886,0.5412 5.1816,0.7802 5.4576,0.7772" id="Fill-3" fill="#838383"></path>
                                <path d="M17.7349,14.9173 C17.6829,14.7243 17.6049,14.5363 17.5049,14.3623 L17.3369,14.0713 C17.1459,14.1983 16.9449,14.3163 16.7269,14.4163 C16.7749,14.4983 16.8019,14.5463 16.8019,14.5463 C17.1339,15.1213 17.1349,15.8093 16.8029,16.3833 C16.4939,16.9173 15.9479,17.2603 15.3389,17.3023 C15.3129,17.3043 2.5029,17.3033 2.4749,17.3023 C1.8649,17.2603 1.3169,16.9163 1.0079,16.3813 C0.6739,15.8023 0.6729,15.1133 1.0039,14.5403 L6.5449,4.9413 L6.5449,1.5023 L5.8949,1.5023 L5.8949,4.7313 L0.3199,14.3623 C0.2029,14.5653 0.1179,14.7823 0.0669,15.0063 C-0.0741,15.5823 0.0099,16.1813 0.3049,16.6903 C0.3479,16.7663 0.3959,16.8353 0.4459,16.9043 C0.8809,17.5053 1.5529,17.8583 2.2919,17.8583 L15.5249,17.8583 C16.3449,17.8583 17.0869,17.4223 17.5089,16.6913 C17.8129,16.1653 17.8979,15.5513 17.7469,14.9623 L17.7349,14.9173 Z" id="Fill-5" fill="#838383"></path>
                                <path d="M7.65,16.6292 L14.84,16.6372 C15.84,16.6372 16.47,15.5572 16.008,14.6842 C15.402,14.8632 14.725,14.9622 13.976,14.9622 C12.324,14.9622 11.114,14.5182 11.063,14.4992 C10.676,14.3552 10.42,13.9842 10.42,13.5722 L10.42,11.4412 C10.42,10.8942 10.862,10.4512 11.409,10.4512 L11.536,10.4512 C11.661,10.4512 11.785,10.4752 11.902,10.5222 C12.198,10.6382 13.127,10.9442 13.831,10.9442 C13.84,10.9442 13.848,10.9432 13.856,10.9432 L12.424,8.4582 L12.293,8.2292 C12.017,7.7442 11.491,8.3302 11.201,8.5332 C10.846,8.8242 10.385,9.1732 9.497,9.1202 C8.555,9.0642 8.031,8.4432 7.922,8.3032 C7.883,8.4002 7.694,8.8372 7.495,9.2362 C6.493,11.3862 5.795,12.9742 5.366,14.0752 C4.616,16.0042 5.243,16.6272 7.65,16.6292" id="Fill-7" fill="#2A8875"></path>
                                <path d="M5.5601,8.1805 C5.4131,8.4345 1.8311,14.6285 1.8311,14.6285 C1.3201,15.5115 1.9581,16.6195 2.9741,16.6195 L3.5921,16.6195 C2.2371,16.0105 2.9681,14.8445 2.9681,14.8445 L6.7881,7.7645 C6.7211,7.7555 6.6551,7.7495 6.5921,7.7495 C6.1451,7.7495 5.7301,7.8875 5.5601,8.1805" id="Fill-9" fill="#2A8875"></path>
                                <path d="M7.9649,5.8143 C8.2249,5.8143 8.4349,5.6033 8.4349,5.3433 C8.4349,5.0843 8.2249,4.8733 7.9649,4.8733 C7.7059,4.8733 7.4949,5.0843 7.4949,5.3433 C7.4949,5.6033 7.7059,5.8143 7.9649,5.8143" id="Fill-11" fill="#2A8875"></path>
                                <path d="M9.855,7.803 C10.292,7.743 10.596,7.339 10.536,6.903 C10.475,6.466 10.071,6.162 9.635,6.222 C9.199,6.283 8.894,6.686 8.954,7.122 C9.015,7.559 9.418,7.864 9.855,7.803" id="Fill-13" fill="#2A8875"></path>
                                <path d="M9.6578,4.388 C9.9548,4.346 10.1618,4.074 10.1208,3.777 C10.0788,3.481 9.8048,3.275 9.5088,3.316 C9.2138,3.357 9.0068,3.63 9.0478,3.927 C9.0888,4.223 9.3628,4.429 9.6578,4.388" id="Fill-15" fill="#2A8875"></path>
                                <path d="M16.4786,6.22 C15.2856,5.284 14.0376,4.753 14.0376,3.431 C14.0376,2.885 14.2576,2.488 14.6866,2.264 C14.9326,2.158 15.2326,2.099 15.5976,2.099 C16.5436,2.099 17.6546,2.482 17.6546,2.482 L17.9096,2.606 L17.9096,0.33 C17.9096,0.33 16.7716,0 15.4696,0 C14.4346,0 13.5886,0.21 12.9386,0.606 C11.8636,1.213 11.2996,2.309 11.2996,3.81 C11.2996,5.668 12.1736,6.524 13.1026,7.271 C14.4316,8.327 15.6696,8.964 15.6696,10.33 C15.6696,11.35 14.9966,11.932 13.8316,11.932 C13.1136,11.932 12.3136,11.707 11.8746,11.561 C11.7136,11.506 11.6156,11.468 11.6156,11.468 L11.6066,11.468 C11.5626,11.451 11.5366,11.441 11.5366,11.441 L11.4086,11.441 L11.4086,13.572 C11.4086,13.572 11.4376,13.582 11.4876,13.599 L11.4876,13.615 C11.4876,13.615 12.5696,14.018 14.0746,14.018 C16.7536,14.018 18.4416,12.716 18.4416,10.018 C18.4416,8.092 17.5796,7.083 16.4786,6.22" id="Fill-17" fill="#838383"></path>
                                <path d="M24.0191,14.0179 C25.0831,14.0179 25.7261,13.7979 25.7261,13.7979 L25.7261,11.7619 L25.5981,11.7619 C25.5981,11.7619 24.9921,12.0179 24.3131,12.0179 C22.8641,12.0179 22.4051,10.8809 22.4051,8.7889 C22.4051,6.6969 22.8641,5.6149 24.3131,5.6149 C24.9921,5.6149 25.5981,5.8529 25.5981,5.8529 L25.7261,5.8529 L25.7261,3.8169 C25.7261,3.8169 25.0651,3.5959 24.0191,3.5959 C20.7351,3.5959 19.7631,5.7989 19.7631,8.8439 C19.7631,11.9089 20.7351,14.0179 24.0191,14.0179" id="Fill-19" fill="#838383"></path>
                                <path d="M29.8912,5.8719 C30.1112,5.5409 30.4602,5.3209 30.9552,5.3209 C31.4512,5.3209 31.7812,5.5409 32.0012,5.8719 C32.3132,6.3489 32.4422,7.1749 32.4422,8.8069 C32.4422,10.4399 32.3132,11.2659 32.0012,11.7429 C31.7812,12.0739 31.4512,12.2929 30.9552,12.2929 C30.4602,12.2929 30.1112,12.0729 29.8912,11.7429 C29.5792,11.2659 29.4692,10.4579 29.4692,8.8259 C29.4692,7.1929 29.5792,6.3489 29.8912,5.8719 M30.9192,14.1279 C32.2952,14.1279 33.4702,13.7249 34.1852,12.7899 C34.8272,11.9639 35.0832,10.7339 35.0832,8.8069 C35.0832,6.8809 34.8272,5.6509 34.1662,4.8079 C33.4512,3.8899 32.3692,3.4859 30.9922,3.4859 C29.5982,3.4859 28.4422,3.9089 27.7262,4.8439 C27.0842,5.6689 26.8282,6.8809 26.8282,8.8439 C26.8282,10.7339 27.0652,11.9639 27.7262,12.8079 C28.4052,13.6879 29.4692,14.1279 30.9192,14.1279" id="Fill-21" fill="#838383"></path>
                                <path d="M48.8829,7.8904 C48.9379,6.1104 49.2499,5.3024 50.2039,5.3024 C51.1579,5.3024 51.4329,6.0924 51.4329,7.8904 L48.8829,7.8904 Z M53.2319,4.9364 C52.6449,3.9994 51.6539,3.4864 50.2589,3.4864 C47.3229,3.4864 46.3509,5.7804 46.3509,8.8624 C46.3509,10.5134 46.6259,11.8724 47.3789,12.7704 C48.0569,13.5774 49.1209,14.0184 50.7179,14.0184 C52.1859,14.0184 53.4329,13.6514 53.4329,13.6514 L53.4329,11.7064 L53.3049,11.7064 C53.3049,11.7064 52.0749,12.1284 51.0289,12.1284 C49.5249,12.1284 48.8829,11.2484 48.8829,9.6144 L53.9279,9.6144 C53.9279,7.5224 53.9099,6.0184 53.2319,4.9364 L53.2319,4.9364 Z" id="Fill-23" fill="#838383"></path>
                                <path d="M42.3135,8.4769 C42.3135,9.6699 42.2395,10.6419 41.9095,11.1739 C41.7085,11.5049 41.3595,11.7619 40.8275,11.7619 C40.2945,11.7619 39.9465,11.5049 39.7445,11.1739 C39.4145,10.6419 39.3405,9.6699 39.3405,8.4769 C39.3405,7.0089 39.4515,6.2569 39.7445,5.7619 C39.9645,5.3939 40.3325,5.1559 40.8275,5.1559 C41.3225,5.1559 41.6895,5.3759 41.9095,5.7439 C42.2035,6.2389 42.3135,7.0089 42.3135,8.4769 M39.3595,14.1109 L39.3595,12.4819 C39.6795,13.4019 40.4035,13.8269 41.4785,13.8269 C42.5775,13.8269 43.4915,13.3779 44.0695,12.6139 C44.7775,11.6819 45.0395,10.1899 45.0395,8.3439 C45.0395,6.7039 44.8345,5.1749 44.0885,4.2049 C43.5105,3.4399 42.6155,3.0859 41.6455,3.0859 C40.3405,3.0859 39.4825,3.7019 39.2035,4.7829 L38.7185,3.2719 L36.7975,3.2719 L36.7975,15.1059 C36.8235,15.0779 37.7815,14.1019 39.3595,14.1109" id="Fill-25" fill="#838383"></path>
                            </g>
                        </g>
                    </g>
                </g>
            </g>
        </g>
    </g>
</svg>
